<svg width="35" height="35" viewBox="0 0 35 35" fill="none" xmlns="http://www.w3.org/2000/svg">
<circle cx="17.5" cy="17.5" r="17.5" fill="#F3BA2F"/>
<path d="M13.2517 15.794L17.5 11.5273L21.7503 15.7959L24.2222 13.3133L17.5 6.56201L10.78 13.3112L13.2518 15.7939L13.2517 15.794ZM6.5625 17.5471L9.03446 15.064L11.5062 17.5465L9.03429 20.0292L6.5625 17.5471ZM13.2517 19.3004L17.5 23.5669L21.7502 19.2983L24.2234 21.7797L24.2222 21.781L17.5 28.5321L10.7765 21.7794L13.252 19.3001L13.2517 19.3004ZM23.4937 17.5481L25.9657 15.0654L28.4375 17.5479L25.9656 20.0307L23.4937 17.5481Z" fill="white"/>
<path d="M20.0078 17.546H20.0089L17.5008 15.0269L15.6469 16.8883L15.434 17.1022L14.9947 17.5435L14.9912 17.5469L14.9947 17.5505L17.5008 20.0679L20.0091 17.5487L20.0103 17.5473L20.008 17.546" fill="white"/>
</svg>
