<svg width="35" height="35" viewBox="0 0 35 35" fill="none" xmlns="http://www.w3.org/2000/svg">
<path d="M17.5 35C27.1652 35 35 27.1652 35 17.5C35 7.83475 27.1652 0 17.5 0C7.83475 0 0 7.83475 0 17.5C0 27.1652 7.83475 35 17.5 35Z" fill="#E30026"/>
<path d="M23.9899 11.5806L18.3304 16.7466M8.75 8.75L16.5926 28.875L8.75 8.75ZM8.75 8.75L23.9899 11.5798L8.75 8.75ZM8.75 8.75L18.3313 16.7458L8.75 8.75ZM16.5917 28.875L28 15.0841L16.5917 28.875ZM16.5926 28.875L18.3304 16.7458L16.5926 28.875ZM28 15.0833L23.9899 11.5798L28 15.0833ZM28 15.085L18.3313 16.7475L28 15.085Z" stroke="white" stroke-width="2" stroke-linejoin="round"/>
</svg>
