<svg width="36" height="35" viewBox="0 0 36 35" fill="none" xmlns="http://www.w3.org/2000/svg">
<path d="M17.5452 35C27.2688 35 35.0904 27.1985 35.0904 17.5C35.0904 7.8015 27.2688 0 17.5452 0C7.82166 0 0 7.8015 0 17.5C0 27.1985 7.82166 35 17.5452 35Z" fill="#E30026"/>
<path d="M22.3699 20.2703C22.3699 17.7188 20.8347 16.8438 17.7643 16.478C15.5711 16.1858 15.1325 15.603 15.1325 14.5828C15.1325 13.5625 15.8641 12.9063 17.3257 12.9063C18.6416 12.9063 19.3732 13.3438 19.7381 14.4375C19.8118 14.6563 20.0311 14.8015 20.2505 14.8015H21.4207C21.7137 14.8015 21.933 14.5828 21.933 14.2905V14.217C21.64 12.6123 20.3241 11.3733 18.6433 11.228V9.47801C18.6433 9.18576 18.424 8.96701 18.0591 8.89526H16.9625C16.6695 8.89526 16.4502 9.11401 16.3782 9.47801V11.1545C14.1851 11.4468 12.7955 12.9045 12.7955 14.728C12.7955 17.1343 14.257 18.0828 17.3274 18.4468C19.3749 18.8108 20.0329 19.2483 20.0329 20.4155C20.0329 21.5828 19.01 22.3843 17.6204 22.3843C15.7203 22.3843 15.0623 21.5828 14.843 20.489C14.7693 20.1968 14.55 20.0515 14.3307 20.0515H13.0885C12.7955 20.0515 12.5762 20.2703 12.5762 20.5625V20.636C12.8692 22.4595 14.0377 23.772 16.4502 24.136V25.886C16.4502 26.1783 16.6695 26.397 17.0344 26.4688H18.131C18.424 26.4688 18.6433 26.25 18.7152 25.886V24.136C20.9066 23.7703 22.3699 22.239 22.3699 20.2703Z" fill="white"/>
<path d="M13.8173 27.9265C8.11512 25.8842 5.19033 19.5405 7.31155 13.9265C8.40812 10.864 10.8206 8.53124 13.8173 7.43749C14.1103 7.29224 14.2559 7.07349 14.2559 6.70774V5.68749C14.2559 5.39524 14.1103 5.17649 13.8173 5.10474C13.7436 5.10474 13.598 5.10474 13.5243 5.17824C6.57991 7.36574 2.77786 14.7297 4.97101 21.658C6.28691 25.7407 9.43101 28.8767 13.5243 30.1892C13.8173 30.3345 14.1086 30.1892 14.1823 29.897C14.2559 29.8235 14.2559 29.7517 14.2559 29.6047V28.5845C14.2559 28.364 14.0366 28.0735 13.8173 27.9265ZM21.5653 5.17649C21.2723 5.03124 20.981 5.17649 20.9073 5.46874C20.8336 5.54224 20.8336 5.61399 20.8336 5.76099V6.78124C20.8336 7.07349 21.053 7.36399 21.2723 7.51099C26.9745 9.55324 29.8993 15.897 27.778 21.511C26.6815 24.5735 24.269 26.9062 21.2723 28C20.9793 28.1452 20.8336 28.364 20.8336 28.7297V29.75C20.8336 30.0422 20.9793 30.261 21.2723 30.3327C21.346 30.3327 21.4916 30.3327 21.5653 30.2592C28.5097 28.0717 32.3117 20.7077 30.1186 13.7795C28.8027 9.62499 25.5866 6.48899 21.5653 5.17649Z" fill="white"/>
</svg>
