<svg width="35" height="35" viewBox="0 0 35 35" fill="none" xmlns="http://www.w3.org/2000/svg">
<path d="M17.4995 34.563C26.9225 34.563 34.5625 26.923 34.5625 17.5C34.5625 8.07701 26.9215 0.437012 17.4995 0.437012C8.07652 0.438012 0.436523 8.07801 0.436523 17.5C0.436523 26.923 8.07652 34.563 17.4995 34.563Z" fill="#E30026"/>
<path fill-rule="evenodd" clip-rule="evenodd" d="M27.1701 18.3762C25.3651 19.3602 19.7641 19.5942 19.7641 19.5942H15.2351C15.2351 19.5942 9.63408 19.3602 7.82908 18.3762C6.02508 17.3912 6.64908 16.8342 8.78108 16.2102C10.9131 15.5872 15.2351 15.3572 15.2351 15.3572V18.6872H19.7621V15.3572H19.7641C19.7641 15.3572 24.0861 15.5872 26.2181 16.2102C28.3511 16.8342 28.9741 17.3912 27.1701 18.3762ZM29.3351 17.3582C28.5151 15.1612 19.7641 15.0292 19.7641 15.0292H19.7621V12.1432H26.5781V7.61523H8.42008V12.1422H15.2351V15.0302C15.2351 15.0302 6.48508 15.1602 5.66508 17.3592C4.84508 19.5572 12.3071 20.2452 15.2351 20.2452V29.6652H19.7621V20.2452H19.7641C22.6921 20.2452 30.1551 19.5572 29.3351 17.3582Z" fill="white"/>
</svg>
