<svg width="35" height="35" viewBox="0 0 35 35" fill="none" xmlns="http://www.w3.org/2000/svg">
<g clip-path="url(#clip0_316_347)">
<path d="M22.0699 0.608276C31.3995 3.13224 36.9166 12.7415 34.3926 22.0711C31.8687 31.4007 22.2595 36.9177 12.9299 34.3938C3.60025 31.8698 -1.91682 22.2606 0.607143 12.931C3.1311 3.60138 12.7403 -1.91568 22.0699 0.608276Z" fill="#FFC536"/>
<g opacity="0.8">
<path opacity="0.15" d="M34.1687 12.1689C32.3125 6.38765 27.5 1.7314 21.1312 0.381395C11.6812 -1.62486 2.38749 4.41265 0.381238 13.8626C-0.281262 16.9876 -0.0687621 20.0939 0.862488 22.9314L34.1687 12.1689Z" fill="black"/>
</g>
<path d="M17.875 31.2749C18.725 31.2749 19.575 31.2749 20.425 31.2686C20.4187 31.1811 20.4125 31.0936 20.4125 31.0061C20.4125 29.8311 20.4062 28.6624 20.4062 27.4874C20.4062 27.0811 20.4062 27.0874 20.8188 27.0436C21.95 26.9186 23.0625 26.7124 24.1063 26.2249C25.0938 25.7624 25.8625 25.0936 26.2625 24.0561C26.55 23.3124 26.6187 22.5311 26.5625 21.7436C26.4625 20.3999 25.8375 19.3749 24.6688 18.6874C24.5875 18.6436 24.5125 18.5936 24.4 18.5374C24.4688 18.5061 24.5 18.4874 24.5375 18.4749C24.975 18.3124 25.4312 18.1811 25.8438 17.9749C26.8625 17.4624 27.5875 16.6811 27.875 15.5436C28.1625 14.4061 28.0938 13.2749 27.8125 12.1499C27.5625 11.1749 27.1 10.3249 26.325 9.66235C25.45 8.91235 24.3938 8.5186 23.2875 8.3061C22.4062 8.13735 21.5063 8.0686 20.6063 7.97485C20.4125 7.9561 20.3562 7.8936 20.3625 7.7061C20.375 7.3686 20.3625 7.0311 20.3625 6.6936C20.3625 5.7061 20.3687 4.71235 20.3687 3.72485C19.5187 3.72485 18.6688 3.72485 17.8188 3.7311C17.8188 5.1061 17.825 6.4811 17.825 7.89985C17.175 7.89985 16.5437 7.9061 15.9187 7.89985C15.7687 7.89985 15.8 7.7811 15.8 7.68735C15.8 6.3686 15.7937 5.04985 15.7937 3.7311C14.9437 3.7311 14.0937 3.7311 13.2437 3.73735C13.2437 5.1436 13.25 6.5436 13.25 7.9811C11.5312 7.9811 9.85 7.98735 8.175 7.98735C8.1625 8.0311 8.15625 8.04985 8.15625 8.06235C8.3125 8.99985 8.48125 9.93735 8.63125 10.8811C8.65625 11.0249 8.7375 11.0124 8.8375 11.0124C9.35625 11.0124 9.88125 11.0061 10.4 11.0124C11.1187 11.0124 11.4562 11.3624 11.4625 12.0811L11.4812 23.0374C11.4812 23.8311 11 24.3499 10.2063 24.3936C9.7875 24.4186 9.36875 24.4186 8.95625 24.4249C8.7 24.4311 8.45 24.4249 8.19375 24.4249C8.19375 25.3374 8.2 26.2186 8.2 27.1311C9.90625 27.1311 11.5938 27.1249 13.2875 27.1249C13.2875 28.5311 13.2937 29.9124 13.2937 31.2874C14.1437 31.2874 14.9938 31.2874 15.8438 31.2811C15.8375 29.9811 15.8375 28.6874 15.8313 27.3874C15.8313 27.2311 15.875 27.1811 16.0312 27.1874C16.4688 27.1999 16.9125 27.2061 17.35 27.2061H17.8625C17.8687 28.5936 17.875 29.9311 17.875 31.2749ZM15.8625 10.9874C16.6625 10.9874 17.425 10.9686 18.1875 10.9874C19.1875 11.0186 20.175 11.1249 21.125 11.4686C21.7312 11.6874 22.3 11.9811 22.65 12.5561C23.325 13.6686 22.9813 15.0998 21.85 15.7686C21.025 16.2561 20.1125 16.4749 19.1688 16.5186C18.1688 16.5686 17.1625 16.5624 16.1625 16.5749C15.8813 16.5811 15.8813 16.5749 15.8813 16.2811C15.875 14.6061 15.875 12.9249 15.875 11.2499C15.8625 11.1749 15.8625 11.0936 15.8625 10.9874ZM15.8813 21.6811C15.8813 20.8936 15.8812 20.1124 15.875 19.3249C15.875 19.1999 15.8875 19.1249 16.05 19.1186C17.3312 19.0936 18.6125 19.0936 19.8687 19.4311C20.5187 19.6061 21.0938 19.9249 21.4813 20.4624C22.0875 21.2999 21.8812 22.6561 21.0875 23.3186C20.4437 23.8561 19.6562 24.0624 18.85 24.1311C17.9438 24.2061 17.0375 24.1874 16.125 24.2186C15.925 24.2249 15.8813 24.1499 15.8813 23.9624C15.8938 23.2061 15.8813 22.4436 15.8813 21.6811Z" fill="white"/>
</g>
<defs>
<clipPath id="clip0_316_347">
<rect width="35" height="35" fill="white" transform="matrix(1 0 0 -1 0 35)"/>
</clipPath>
</defs>
</svg>
