<svg width="30" height="30" viewBox="0 0 30 30" fill="none" xmlns="http://www.w3.org/2000/svg">
<path d="M27.1875 4.6875H2.8125C2.29395 4.6875 1.875 5.10645 1.875 5.625V24.375C1.875 24.8936 2.29395 25.3125 2.8125 25.3125H27.1875C27.7061 25.3125 28.125 24.8936 28.125 24.375V5.625C28.125 5.10645 27.7061 4.6875 27.1875 4.6875ZM24.8203 7.87793L15.5771 15.0703C15.3486 15.249 15.0293 15.249 14.8008 15.0703L5.55469 7.87793C5.51983 7.85103 5.49427 7.8139 5.48158 7.77174C5.46889 7.72958 5.4697 7.68451 5.48392 7.64284C5.49813 7.60117 5.52503 7.56499 5.56083 7.53938C5.59664 7.51376 5.63957 7.49999 5.68359 7.5H24.6914C24.7354 7.49999 24.7784 7.51376 24.8142 7.53938C24.85 7.56499 24.8769 7.60117 24.8911 7.64284C24.9053 7.68451 24.9061 7.72958 24.8934 7.77174C24.8807 7.8139 24.8552 7.85103 24.8203 7.87793Z" fill="#BFC4D9"/>
</svg>
