<svg width="35" height="35" viewBox="0 0 35 35" fill="none" xmlns="http://www.w3.org/2000/svg">
<path d="M17.5 35C27.165 35 35 27.165 35 17.5C35 7.83502 27.165 0 17.5 0C7.83502 0 0 7.83502 0 17.5C0 27.165 7.83502 35 17.5 35Z" fill="#0EDF86"/>
<path fill-rule="evenodd" clip-rule="evenodd" d="M17.0931 14.9596C16.9386 14.945 16.8481 14.9304 16.7577 14.9304C15.1623 14.9304 13.5654 14.9348 11.97 14.9304C11.7746 14.929 11.6886 14.9771 11.6492 15.1842C11.4829 16.0679 10.9433 16.5973 10.0508 16.7431C9.85251 16.7752 9.83064 16.8685 9.83064 17.029C9.83355 18.531 9.83501 20.036 9.82918 21.5396C9.82918 21.7263 9.88459 21.7948 10.0771 21.8313C10.9506 21.9917 11.4917 22.5079 11.6463 23.3858C11.6813 23.5915 11.7629 23.6469 11.9613 23.6454C13.5669 23.6396 15.1725 23.6425 16.7796 23.641C16.8671 23.641 16.9546 23.6221 17.1121 23.6031C16.9852 23.4937 16.9167 23.431 16.8452 23.3742C16.0431 22.7442 15.5794 21.9012 15.3811 20.9271C15.1696 19.889 15.1617 18.8197 15.3577 17.7785C15.5502 16.7358 16.0227 15.8448 16.8671 15.171C16.9298 15.12 16.9838 15.0617 17.0931 14.9596ZM20.9548 23.5987C21.1006 23.6192 21.1779 23.6396 21.2581 23.6396C22.8827 23.6425 24.5073 23.6396 26.1319 23.644C26.304 23.644 26.3798 23.5958 26.409 23.4106C26.5606 22.5065 27.1133 21.9829 28.0117 21.824C28.1838 21.7948 28.229 21.7277 28.229 21.5658C28.2246 20.0448 28.2261 18.5223 28.2304 17.0012C28.2304 16.8379 28.1823 16.7737 28.0117 16.7431C27.1411 16.59 26.5825 16.0927 26.4192 15.2133C26.3783 14.9888 26.2923 14.9231 26.0692 14.9246C24.4811 14.9333 22.8958 14.929 21.3092 14.9304C21.2188 14.9304 21.1283 14.945 21.0394 14.9537L20.984 15.0442C21.0554 15.0879 21.1313 15.1229 21.1954 15.1754C22.0442 15.8565 22.559 16.7475 22.6946 17.8121C22.7938 18.5996 22.8302 19.4046 22.7865 20.1965C22.7208 21.3383 22.2979 22.3592 21.4521 23.1715C21.3121 23.3085 21.1561 23.4281 20.9548 23.5987ZM19.0313 25.4377H8.41605C8.03105 25.4377 8.02814 25.4377 8.02814 25.0483C8.02814 21.1925 8.03251 17.3367 8.02084 13.4808C8.02084 13.1746 8.12293 13.125 8.39855 13.125C13.9738 13.1323 19.549 13.1308 25.1256 13.1308C26.6554 13.1308 28.1852 13.1367 29.715 13.125C29.9702 13.125 30.0373 13.1965 30.0358 13.4473C30.03 17.3323 30.03 21.2158 30.0373 25.0994C30.0373 25.3531 29.9761 25.445 29.7048 25.4435C26.1465 25.4348 22.5881 25.4377 19.0313 25.4377Z" fill="white"/>
<path fill-rule="evenodd" clip-rule="evenodd" d="M15.4117 10.3279C18.9598 10.3279 22.5079 10.3308 26.056 10.322C26.3258 10.322 26.4017 10.4051 26.3915 10.6633C26.3748 11.0438 26.3763 11.4248 26.3958 11.8051C26.4075 12.0487 26.3346 12.1362 26.075 12.1347C23.6469 12.126 21.2173 12.1274 18.7877 12.1274C14.6854 12.1274 10.5831 12.1274 6.47937 12.1231C6.25917 12.1231 6.18479 12.1814 6.18479 12.4133C6.19354 15.6785 6.19062 18.9437 6.19062 22.2089C6.19062 22.6435 6.19062 22.6435 5.75312 22.642C5.39146 22.6406 5.02687 22.6231 4.66375 22.6406C4.4275 22.6508 4.37646 22.5589 4.37646 22.3416C4.38229 20.2474 4.37792 18.1533 4.37792 16.0591C4.37792 14.2595 4.38521 12.4599 4.375 10.6604C4.375 10.4022 4.44354 10.322 4.71042 10.322C8.2775 10.3308 11.8446 10.3279 15.4117 10.3279Z" fill="white"/>
</svg>
