<svg width="35" height="35" viewBox="0 0 35 35" fill="none" xmlns="http://www.w3.org/2000/svg">
<path d="M17.4995 34.563C26.9232 34.563 34.5625 26.9236 34.5625 17.5C34.5625 8.07638 26.9232 0.437012 17.4995 0.437012C8.07589 0.437012 0.436523 8.07638 0.436523 17.5C0.436523 26.9236 8.07589 34.563 17.4995 34.563Z" fill="#00A27A"/>
<path fill-rule="evenodd" clip-rule="evenodd" d="M27.1691 18.375C25.3651 19.359 19.7631 19.593 19.7631 19.593H15.2351C15.2351 19.593 9.6331 19.359 7.8291 18.375C6.0241 17.391 6.6481 16.833 8.7801 16.21C10.9131 15.586 15.2351 15.357 15.2351 15.357V18.687H19.7621V15.357H19.7631C19.7631 15.357 24.0851 15.587 26.2181 16.21C28.3501 16.833 28.9741 17.39 27.1691 18.375ZM29.3341 17.358C28.5141 15.16 19.7641 15.028 19.7641 15.028H19.7621V12.142H26.5771V7.61401H8.4191V12.142H15.2351V15.029C15.2351 15.029 6.4841 15.159 5.6641 17.358C4.8441 19.556 12.3071 20.245 15.2341 20.245V29.665H19.7621V20.243L19.7631 20.245C22.6911 20.245 30.1541 19.555 29.3341 17.358Z" fill="white"/>
</svg>
