<svg width="50" height="49" viewBox="0 0 50 49" fill="none" xmlns="http://www.w3.org/2000/svg">
<circle cx="25.2242" cy="24.4565" r="24.4565" fill="url(#paint0_linear_159_4958)"/>
<path fill-rule="evenodd" clip-rule="evenodd" d="M29.1815 29.3335C28.5838 28.2305 27.2003 26.0254 24.2878 24.3438L24.2912 24.338C21.5135 22.7343 18.7714 22.5575 17.5231 22.5948C17.7792 20.5001 18.4557 18.4217 19.579 16.4761C22.5631 11.3074 27.9519 8.4022 33.5176 8.35732C36.2582 13.2057 36.4366 19.3251 33.4525 24.4937C32.3292 26.4393 30.8674 28.0644 29.1815 29.3335ZM31.7198 14.5703C32.1461 13.832 31.8969 12.8833 31.1527 12.4536C30.4143 12.0273 29.4622 12.2824 29.0359 13.0208C28.6096 13.7591 28.8647 14.7112 29.6031 15.1375C30.3415 15.5638 31.2935 15.3087 31.7198 14.5703ZM29.4993 21.1096C30.2977 19.7266 29.8281 17.9553 28.4392 17.1534C27.0562 16.3549 25.2814 16.8305 24.483 18.2135C23.6845 19.5965 24.16 21.3712 25.543 22.1697C26.926 22.9682 28.7008 22.4926 29.4993 21.1096ZM33.2887 27.376C32.5212 31.2225 30.9039 34.0237 30.9039 34.0237L30.9005 34.0295C30.742 32.8832 30.3674 31.7996 29.936 30.8551C31.1751 29.8593 32.3058 28.6994 33.2887 27.376ZM15.8222 22.6987C16.0685 21.1219 16.511 19.5569 17.1599 18.0406C14.1998 20.6368 12.5758 23.4497 12.5758 23.4497C13.6478 23.0139 14.7827 22.794 15.8164 22.6953L15.8222 22.6987ZM8.5005 28.2619C12.3035 24.3005 18.4342 23.2769 23.3977 26.1426L23.4095 26.1494C28.373 29.0151 30.5486 34.8421 29.0228 40.1104L24.7742 37.6575C25.1498 34.7333 23.7959 31.7326 21.0826 30.1661C18.3694 28.5996 15.0879 28.9241 12.7491 30.7148L8.5005 28.2619ZM16.4077 38.2497C17.5307 38.8981 18.9668 38.5133 19.6152 37.3903C20.2636 36.2672 19.8788 34.8312 18.7557 34.1828C17.6327 33.5344 16.1966 33.9192 15.5482 35.0422C14.8998 36.1653 15.2846 37.6013 16.4077 38.2497ZM14.2776 39.5438C14.6092 38.9695 15.3394 38.7738 15.9137 39.1054C16.488 39.437 16.6837 40.1672 16.3521 40.7415C16.0205 41.3158 15.2903 41.5115 14.716 41.1799C14.1417 40.8483 13.946 40.1181 14.2776 39.5438Z" fill="white"/>
<defs>
<linearGradient id="paint0_linear_159_4958" x1="15.1742" y1="48.922" x2="54.4575" y2="6.46064" gradientUnits="userSpaceOnUse">
<stop stop-color="#6D00AF"/>
<stop offset="1" stop-color="#EF0069"/>
</linearGradient>
</defs>
</svg>
