<svg width="306" height="73" viewBox="0 0 306 73" fill="none" xmlns="http://www.w3.org/2000/svg">
<g clip-path="url(#clip0_178_5289)">
<path d="M62.9456 11.1757L63.3299 13.4994C63.3528 13.6368 63.7498 16.1107 63.7498 20.0251C63.7498 23.7487 63.3909 28.7754 62.0168 34.3391C60.7114 39.6279 58.3346 45.9297 54.0341 52.1195C49.731 58.3093 43.5092 64.3973 34.4399 69.2891L33.3304 69.8872L32.2209 69.2891C23.1516 64.3973 16.9324 58.3093 12.6268 52.1195C8.32622 45.9297 5.94947 39.6279 4.64404 34.3391C3.27245 28.7754 2.9111 23.7512 2.9111 20.0277C2.9111 16.1132 3.30807 13.6368 3.33098 13.5019L3.71523 11.1782C3.84755 10.3841 3.30807 9.6333 2.51667 9.50349C1.72273 9.37114 0.972041 9.91072 0.842261 10.7023L0.458012 13.026C0.414752 13.2907 -0.00257874 15.9147 -0.00257874 20.0277C-0.00257874 23.937 0.374037 29.1928 1.81434 35.039C3.18593 40.6027 5.68991 47.2455 10.2347 53.784C14.777 60.3225 21.3653 66.7516 30.8366 71.8571L32.6383 72.8268C33.0709 73.061 33.5874 73.061 34.02 72.8268L35.8191 71.8571C45.2905 66.7516 51.8813 60.3251 56.421 53.784C60.9658 47.243 63.4673 40.6001 64.8414 35.039C66.2817 29.1953 66.6583 23.937 66.6583 20.0277C66.6583 15.9147 66.2436 13.2907 66.1978 13.026L65.8135 10.7048C65.6812 9.91072 64.933 9.37369 64.1391 9.50604C63.3451 9.63839 62.8082 10.3867 62.9405 11.1807L62.9456 11.1757Z" fill="#616BA0"/>
<path d="M11.6751 9.59265L33.3305 2.98035L55.4693 9.74026C56.2378 9.97442 57.0521 9.54174 57.2888 8.77311C57.5229 8.00447 57.0903 7.19002 56.3218 6.95332L33.758 0.0636028C33.4806 -0.0203871 33.1854 -0.0203871 32.908 0.0636028L10.8252 6.80571C10.0567 7.03986 9.62151 7.85431 9.85817 8.62549C10.0923 9.39412 10.9066 9.82934 11.6776 9.59265H11.6751Z" fill="#616BA0"/>
<path d="M0.984793 11.6033L32.0352 72.2084C32.282 72.692 32.7757 72.9974 33.3177 72.9999C33.8623 73.005 34.3585 72.7098 34.6155 72.2288L53.5481 36.813L53.5761 36.757L65.6939 11.5702C66.0426 10.8448 65.7372 9.97438 65.012 9.62569C64.2867 9.27701 63.4164 9.58243 63.0678 10.3078L50.9627 35.4666L33.3584 68.4008L3.57784 10.2722C3.2114 9.55698 2.33348 9.27192 1.61588 9.64097C0.900818 10.0075 0.615812 10.8855 0.984793 11.6033V11.6033Z" fill="#616BA0"/>
<path d="M15.8433 38.5946H50.3698C51.1739 38.5946 51.8253 37.9431 51.8253 37.1388C51.8253 36.3345 51.1739 35.683 50.3698 35.683H15.8433C15.0392 35.683 14.3877 36.3345 14.3877 37.1388C14.3877 37.9431 15.0392 38.5946 15.8433 38.5946Z" fill="#616BA0"/>
<path d="M112.14 26.0193H89.6803C89.2782 26.0193 88.9347 26.1643 88.6471 26.4519C88.3596 26.7395 88.2145 27.0857 88.2145 27.4853V45.5151C88.2145 45.9147 88.357 46.2608 88.6471 46.5484C88.9347 46.836 89.2782 46.9811 89.6803 46.9811H112.14V50.0226H89.6803C88.4283 50.0226 87.3646 49.5848 86.4892 48.7093C85.6113 47.8337 85.1761 46.7699 85.1761 45.5177V27.4853C85.1761 26.233 85.6138 25.1692 86.4892 24.2936C87.3646 23.4181 88.4283 22.9803 89.6803 22.9803H112.14V26.0218V26.0193Z" fill="#616BA0"/>
<path d="M154.316 22.9777V26.0191H132.683V34.9602H150.071V38.0399H132.683V46.981H154.316V50.0224H129.642V22.9777H154.316Z" fill="#616BA0"/>
<path d="M198.855 27.5233V35.4489C198.855 36.7011 198.418 37.765 197.54 38.6431C196.664 39.5186 195.601 39.9564 194.349 39.9564H190.219L198.705 50.0225H194.687L186.236 39.9564H176.322C176.096 39.9564 175.61 39.9055 174.856 39.8062V50.0225H171.813V23.0159H194.346C195.598 23.0159 196.662 23.4536 197.537 24.3292C198.413 25.2072 198.853 26.2711 198.853 27.5208L198.855 27.5233ZM176.322 36.8768H194.349C194.748 36.8768 195.087 36.7393 195.364 36.4644C195.639 36.1896 195.776 35.8511 195.776 35.4489V27.5233C195.776 27.1237 195.639 26.7801 195.364 26.49C195.089 26.2024 194.751 26.0573 194.349 26.0573H176.322C175.92 26.0573 175.577 26.2024 175.289 26.49C175.001 26.7776 174.856 27.1237 174.856 27.5233V35.4489C174.856 35.8511 174.999 36.187 175.289 36.4644C175.577 36.7393 175.92 36.8768 176.322 36.8768Z" fill="#616BA0"/>
<path d="M215.004 22.9777H242.044V26.0191H230.064V50.0224H227.02V26.0191H215.004V22.9777V22.9777Z" fill="#616BA0"/>
<path d="M258.419 50.0224V22.9777H261.463V50.0224H258.419V50.0224Z" fill="#616BA0"/>
<path d="M302.056 22.9777H305.962L294.658 36.5L306 50.0224H302.056L291.991 38.0399H283.278V50.0224H280.199V22.9777H283.278V34.9602H291.991L302.056 22.9777V22.9777Z" fill="#616BA0"/>
</g>
<defs>
<clipPath id="clip0_178_5289">
<rect width="306" height="73" fill="white"/>
</clipPath>
</defs>
</svg>
