<svg width="78" height="96" viewBox="0 0 78 96" fill="none" xmlns="http://www.w3.org/2000/svg">
<path d="M49.4576 12.21C47.5952 12.4424 46.7445 13.3369 46.7228 14.1734C46.6967 15.2802 48.1517 15.9969 49.9009 16.8585C52.5078 18.1425 55.7681 19.7484 55.7533 23.4471C55.7285 28.3032 51.2953 31.4516 44.5387 31.4516C41.6492 31.4226 38.868 30.8562 37.3644 30.2085L38.5277 25.0823L38.6891 25.1523C40.1661 25.7933 42.0242 26.5997 45.1543 26.5577C47.0043 26.5287 48.9936 25.8403 49.006 24.2691C49.0214 23.238 48.1769 22.5061 45.6648 21.3647C43.227 20.2436 39.9879 18.3586 40.0219 14.9953C40.0621 10.4413 44.5418 7.25806 50.9148 7.25806C53.3928 7.25806 55.3975 7.76923 56.9443 8.30073L55.8151 13.2527C52.9257 12.0125 50.3826 12.0968 49.4576 12.21Z" fill="white"/>
<path fill-rule="evenodd" clip-rule="evenodd" d="M64.1379 9.13186C64.5962 8.05522 65.6288 7.36438 66.8509 7.36438H72.2862L77.419 31.4512H71.5163L70.7525 27.8535H62.6041L61.2782 31.4512H54.5902L64.1379 9.13186ZM67.8164 13.8723L64.4342 22.9191H69.7198L67.8164 13.8723Z" fill="white"/>
<path d="M31.8237 7.69042L26.4995 31.0824H32.9436L38.2617 7.69042H31.8237Z" fill="white"/>
<path d="M15.9654 23.7592L22.3409 7.36438H28.7841L18.8591 31.4512H12.3806L7.49011 12.2272C7.19897 11.0429 6.94018 10.6093 6.04031 10.1068C4.56699 9.29635 2.13499 8.53971 0 8.0612L0.141156 7.36438H10.5632C11.8954 7.36438 13.0893 8.26457 13.3863 9.81972L15.9654 23.7592Z" fill="white"/>
<path fill-rule="evenodd" clip-rule="evenodd" d="M29.5906 91.8618H47.4566V61.4285H29.5906V91.8618Z" fill="#FF5F00"/>
<path fill-rule="evenodd" clip-rule="evenodd" d="M31.1428 76.6451C31.1428 70.4709 34.0291 64.9725 38.5236 61.4285C35.2363 58.8365 31.0891 57.2903 26.5812 57.2903C15.9094 57.2903 7.25806 65.9559 7.25806 76.6451C7.25806 87.3344 15.9094 96 26.5812 96C31.0891 96 35.2363 94.4537 38.5236 91.8618C34.0291 88.3177 31.1428 82.8188 31.1428 76.6451Z" fill="#EB001B"/>
<path fill-rule="evenodd" clip-rule="evenodd" d="M69.7891 76.6451C69.7891 87.3344 61.1376 96 50.4662 96C45.9582 96 41.8104 94.4537 38.5236 91.8618C43.0182 88.3177 45.904 82.8188 45.904 76.6451C45.904 70.4709 43.0182 64.9725 38.5236 61.4285C41.8104 58.8365 45.9582 57.2903 50.4662 57.2903C61.1376 57.2903 69.7891 65.9559 69.7891 76.6451Z" fill="#F79E1B"/>
</svg>
