<svg width="124" height="28" viewBox="0 0 124 28" fill="none" xmlns="http://www.w3.org/2000/svg">
<path d="M35.3637 8.89116C34.032 9.0573 33.4237 9.69693 33.4082 10.295C33.3896 11.0864 34.43 11.5989 35.6807 12.2149C37.5447 13.1331 39.8759 14.2813 39.8653 16.926C39.8476 20.3983 36.6777 22.6495 31.8465 22.6495C29.7804 22.6287 27.7918 22.2237 26.7167 21.7606L27.5484 18.0952L27.6639 18.1453C28.72 18.6036 30.0486 19.1802 32.2867 19.1502C33.6095 19.1294 35.0319 18.6372 35.0407 17.5137C35.0518 16.7765 34.4479 16.2531 32.6517 15.437C30.9086 14.6354 28.5925 13.2876 28.6169 10.8827C28.6456 7.62643 31.8487 5.35034 36.4056 5.35034C38.1775 5.35034 39.6109 5.71585 40.7169 6.09589L39.9095 9.6367C37.8434 8.74994 36.0251 8.81017 35.3637 8.89116Z" fill="white"/>
<path fill-rule="evenodd" clip-rule="evenodd" d="M45.8605 6.69017C46.1882 5.92034 46.9266 5.42636 47.8004 5.42636H51.6868L55.3569 22.6492H51.1363L50.5902 20.0767H44.7639L43.8157 22.6492H39.0337L45.8605 6.69017ZM48.4908 10.0797L46.0724 16.5484H49.8518L48.4908 10.0797Z" fill="white"/>
<path d="M22.7549 5.6595L18.9479 22.3854H23.5557L27.3583 5.6595H22.7549Z" fill="white"/>
<path d="M11.4157 17.1492L15.9744 5.42636H20.5815L13.4848 22.6492H8.85249L5.35565 8.90344C5.14748 8.05662 4.96244 7.74655 4.31901 7.3873C3.26554 6.80778 1.52658 6.26676 0 5.92462L0.100931 5.42636H7.553C8.50554 5.42636 9.35925 6.07003 9.57162 7.18201L11.4157 17.1492Z" fill="white"/>
<path fill-rule="evenodd" clip-rule="evenodd" d="M89.8011 24.8804H102.576V3.11963H89.8011V24.8804Z" fill="#FF5F00"/>
<path fill-rule="evenodd" clip-rule="evenodd" d="M90.9109 13.9999C90.9109 9.5852 92.9747 5.65369 96.1884 3.11956C93.8379 1.26625 90.8726 0.160645 87.6493 0.160645C80.0186 0.160645 73.8326 6.3568 73.8326 13.9999C73.8326 21.6431 80.0186 27.8392 87.6493 27.8392C90.8726 27.8392 93.8379 26.7336 96.1884 24.8803C92.9747 22.3462 90.9109 18.4143 90.9109 13.9999" fill="#EB001B"/>
<path fill-rule="evenodd" clip-rule="evenodd" d="M118.544 13.9999C118.544 21.6431 112.358 27.8392 104.728 27.8392C101.504 27.8392 98.5385 26.7336 96.1884 24.8803C99.4021 22.3462 101.466 18.4143 101.466 13.9999C101.466 9.5852 99.4021 5.65369 96.1884 3.11956C98.5385 1.26625 101.504 0.160645 104.728 0.160645C112.358 0.160645 118.544 6.3568 118.544 13.9999" fill="#F79E1B"/>
</svg>
