<svg width="26" height="26" viewBox="0 0 26 26" fill="none" xmlns="http://www.w3.org/2000/svg">
<path fill-rule="evenodd" clip-rule="evenodd" d="M8.73697 0.0746051C7.77631 0.19378 6.92499 0.419013 6.10267 0.771606C3.65955 1.81922 1.81558 3.65718 0.77655 6.08028C-0.376913 8.77011 -0.237256 12.0226 1.14125 14.5761L1.36752 14.9952L0.703111 17.3929C0.337644 18.7116 0.0474476 19.7992 0.0581278 19.8099C0.068808 19.8206 1.15692 19.5303 2.47613 19.1648L4.8747 18.5003L5.2928 18.7259C6.56909 19.4144 8.04489 19.8024 9.60156 19.8585C14.268 20.0269 18.4206 16.8966 19.5673 12.3463C20.4237 8.94786 19.4287 5.38572 16.9274 2.8953C14.764 0.741304 11.7447 -0.298529 8.73697 0.0746051ZM10.5763 4.64673C11.4601 4.83403 12.2504 5.45106 12.6526 6.26789C12.8787 6.72685 12.957 7.07573 12.957 7.62371C12.957 8.15136 12.8888 8.47527 12.6831 8.92442C12.4793 9.36944 12.2437 9.6446 11.4222 10.3973L10.6696 11.0869V11.6686V12.2504H9.93213H9.19469V11.3142V10.378L9.79187 9.82703C11.3868 8.35559 11.4314 8.29555 11.4314 7.62371C11.4314 7.13588 11.2925 6.82081 10.9364 6.5007C10.3442 5.96843 9.52003 5.96843 8.92784 6.5007C8.63744 6.76168 8.43304 7.1463 8.43233 7.43305L8.43182 7.62371H7.66895H6.90607L6.90668 7.38221C6.90857 6.62903 7.42503 5.68966 8.11228 5.18952C8.84814 4.65395 9.71202 4.46364 10.5763 4.64673ZM21.3578 10.8395C20.8762 16.4785 16.4801 20.8778 10.8476 21.3573C10.456 21.3906 10.1287 21.4231 10.1203 21.4295C10.0872 21.4546 10.6365 22.3345 10.92 22.7106C11.3115 23.23 12.2072 24.0889 12.7819 24.4959C13.3293 24.8835 14.3831 25.4101 15.0304 25.6193C15.9302 25.9103 16.5388 26 17.6117 26C18.4119 26 18.6771 25.9802 19.1544 25.8849C19.9378 25.7285 20.696 25.4726 21.3601 25.1406L21.9148 24.8632L23.9284 25.4215C25.0359 25.7286 25.9506 25.9713 25.9609 25.961C25.9713 25.9506 25.7285 25.0362 25.4213 23.9291L24.8629 21.916L25.1403 21.3615C25.4724 20.6976 25.7284 19.9397 25.8849 19.1565C25.9802 18.6794 26 18.4142 26 17.6143C26 16.5417 25.9102 15.9333 25.6192 15.0338C25.4099 14.3867 24.8832 13.3331 24.4954 12.786C24.0883 12.2114 23.2291 11.316 22.7096 10.9246C22.3885 10.6827 21.4941 10.115 21.434 10.115C21.4261 10.115 21.3918 10.441 21.3578 10.8395ZM10.6696 14.5383V15.3009H9.93213H9.19469V14.5383V13.7757H9.93213H10.6696V14.5383Z" fill="#616BA0"/>
</svg>
