<svg width="267" height="50" viewBox="0 0 267 50" fill="none" xmlns="http://www.w3.org/2000/svg">
<g clip-path="url(#clip0_165_5011)">
<path d="M61.9649 40.2372H56V13.8872H67.2328C72.8492 13.8872 76.3134 17.5461 76.3134 22.6603C76.3134 26.8111 73.5871 30.1625 69.1186 31.0849L61.9649 31.2796V40.2474V40.2372ZM61.9649 19.3499V26.3909H66.1567C68.7701 26.3909 70.3075 24.9253 70.3075 22.8858C70.3075 20.8462 68.9956 19.3499 66.3412 19.3499H61.9546H61.9649Z" fill="#000B44"/>
<path d="M98.8098 30.4288C98.8098 36.117 94.2285 40.6982 88.1919 40.6982C82.1553 40.6982 77.615 36.199 77.615 30.4288C77.615 24.6587 82.1553 20.1184 88.1919 20.1184C94.2285 20.1184 98.8098 24.6997 98.8098 30.4288ZM82.8829 30.4288C82.8829 33.5855 85.0762 35.9325 88.0791 35.9325C91.0821 35.9325 93.5008 33.5855 93.5008 30.4288C93.5008 27.2722 91.1948 24.9661 88.1919 24.9661C85.1889 24.9661 82.8829 27.2312 82.8829 30.4288Z" fill="#000B44"/>
<path d="M119.81 35.6558C117.924 38.7304 114.962 40.6982 110.616 40.6982C104.498 40.6982 100.193 36.117 100.193 30.4288C100.193 24.7407 104.498 20.1184 110.616 20.1184C114.962 20.1184 118.006 22.1989 119.851 25.2736L115.659 27.8871C114.624 26.237 113.271 24.9969 110.811 24.9969C107.696 24.9969 105.584 27.1902 105.584 30.4186C105.584 33.647 107.696 35.8812 110.811 35.8812C113.271 35.8812 114.624 34.6514 115.659 32.991L119.81 35.6455V35.6558Z" fill="#000B44"/>
<path d="M133.349 20.4978H139.426L131.852 30.306L139.734 40.2269H133.082L126.81 32.1098V40.2269H121.429V13.8872H126.81V29.3528L133.349 20.508V20.4978Z" fill="#000B44"/>
<path d="M157.198 36.0042C155.24 38.9252 152.278 40.6982 147.851 40.6982C141.537 40.6982 137.469 36.2707 137.469 30.4288C137.469 24.5869 141.701 20.1184 147.892 20.1184C154.082 20.1184 157.895 24.4639 157.895 30.1623C157.895 30.931 157.823 31.9354 157.823 32.0481H142.747C143.321 34.5489 145.207 36.1682 147.974 36.1682C150.393 36.1682 152.094 35.1331 153.201 33.5547L157.198 36.0145V36.0042ZM142.931 28.0818H152.514C151.94 25.6631 150.013 24.5049 147.861 24.5049C145.36 24.5049 143.669 25.8168 142.942 28.0818H142.931Z" fill="#000B44"/>
<path d="M171.423 20.4978V25.2635H166.576V33.1859C166.576 34.9897 167.385 35.6457 169.189 35.6457H171.423V40.2269H168.81C163.542 40.2269 161.236 37.9209 161.236 33.4524V25.2533H158.387V20.4875H161.236V15.4143H166.586V20.4875H171.434L171.423 20.4978Z" fill="#000B44"/>
<path d="M189.461 17.0336L182.728 40.2269H180.535L173.114 13.877H175.195L181.734 37.3777L188.508 13.877H190.62L197.394 37.347L203.933 13.877H205.972L198.429 40.2269H196.236L189.461 17.0336Z" fill="#000B44"/>
<path d="M222.852 36.4247C221.274 38.8435 218.507 40.5038 214.817 40.5038C209.273 40.5038 205.009 36.1992 205.009 30.5828C205.009 24.9664 209.283 20.6926 214.817 20.6926C218.507 20.6926 221.202 22.3427 222.852 24.659V21.0001H224.738V40.2373H222.852V36.4247ZM206.885 30.6136C206.885 35.1538 210.308 38.6897 214.92 38.6897C219.532 38.6897 222.955 35.1846 222.955 30.6136C222.955 26.0426 219.45 22.4964 214.92 22.4964C210.39 22.4964 206.885 26.0016 206.885 30.6136Z" fill="#000B44"/>
<path d="M227.813 40.2372V13.8872H229.699V40.2372H227.813Z" fill="#000B44"/>
<path d="M232.773 40.2372V13.8872H234.659V40.2372H232.773Z" fill="#000B44"/>
<path d="M256.038 35.697C254.235 38.618 251.498 40.5038 247.153 40.5038C241.341 40.5038 237.15 36.1992 237.15 30.5828C237.15 24.9664 241.382 20.6926 246.999 20.6926C252.615 20.6926 256.735 25.0792 256.735 29.9986C256.735 30.3061 256.694 30.6136 256.694 30.8801C256.653 30.9928 256.653 31.1465 256.653 31.2695H239.148C239.456 35.9635 242.991 38.659 247.153 38.659C250.965 38.659 253.076 37.1626 254.573 34.6926L256.038 35.697ZM239.148 29.5374H254.767C254.347 25.1919 250.996 22.4964 246.999 22.4964C243.002 22.4964 239.579 25.2226 239.148 29.5374Z" fill="#000B44"/>
<path d="M267.384 21V22.691H262.034V34.3851C262.034 37.6135 264.186 38.4231 265.877 38.4231H267.343V40.2269H265.847C263.233 40.2269 260.189 38.8023 260.189 34.3748V22.6808H257.299V20.9897H260.189V15.4143H262.034V20.9897H267.384V21Z" fill="#000B44"/>
<path d="M61.2577 26.7703C60.6735 26.7703 60.0996 26.8113 59.5256 26.8728V32.9504C60.0893 32.8479 60.6633 32.7966 61.2577 32.7966C65.7262 32.7966 69.4876 35.7996 70.6457 39.8991H76.8566C75.5652 32.4482 69.0776 26.7805 61.2475 26.7805L61.2577 26.7703Z" fill="#000B44"/>
<path fill-rule="evenodd" clip-rule="evenodd" d="M31.0966 31.6397C30.1996 29.9845 28.1236 26.6754 23.753 24.1521L23.7581 24.1433C19.5898 21.7367 15.4749 21.4715 13.6018 21.5274C13.9861 18.3841 15.0013 15.2651 16.6869 12.3455C21.165 4.58933 29.2515 0.229682 37.6035 0.162333C41.7161 7.43788 41.9838 16.6208 37.5058 24.377C35.8201 27.2966 33.6266 29.7353 31.0966 31.6397ZM34.9057 9.48573C35.5454 8.3777 35.1714 6.95406 34.0546 6.30926C32.9465 5.66954 31.5178 6.05236 30.8781 7.16039C30.2384 8.26842 30.6212 9.69714 31.7292 10.3369C32.8373 10.9766 34.266 10.5938 34.9057 9.48573ZM31.5735 19.2988C32.7717 17.2234 32.0669 14.5652 29.9827 13.362C27.9073 12.1638 25.2441 12.8774 24.0459 14.9527C22.8477 17.0281 23.5613 19.6913 25.6367 20.8895C27.712 22.0877 30.3753 21.3741 31.5735 19.2988ZM37.2598 28.7023C36.1081 34.4745 33.6812 38.678 33.6812 38.678L33.6761 38.6868C33.4382 36.9665 32.8761 35.3405 32.2288 33.9232C34.0882 32.4289 35.7849 30.6883 37.2598 28.7023ZM11.0494 21.6836C11.4189 19.3173 12.083 16.9688 13.0567 14.6935C8.61469 18.5895 6.17765 22.8105 6.17765 22.8105C7.78643 22.1565 9.48948 21.8265 11.0406 21.6785L11.0494 21.6836ZM0.0621166 30.0317C5.76893 24.0871 14.9689 22.5512 22.4173 26.8515L22.4349 26.8617C29.8833 31.162 33.148 39.9062 30.8583 47.8119L24.4827 44.131C25.0464 39.7429 23.0147 35.2399 18.9431 32.8892C14.8716 30.5385 9.94728 31.0254 6.43769 33.7127L0.0621166 30.0317ZM11.9279 45.0197C13.6132 45.9927 15.7681 45.4153 16.7411 43.73C17.7141 42.0447 17.1367 39.8897 15.4514 38.9167C13.7661 37.9437 11.6112 38.5212 10.6382 40.2064C9.66517 41.8917 10.2426 44.0467 11.9279 45.0197ZM8.73144 46.9615C9.229 46.0997 10.3248 45.806 11.1866 46.3036C12.0484 46.8012 12.342 47.897 11.8445 48.7588C11.3469 49.6206 10.2511 49.9142 9.3893 49.4166C8.5275 48.9191 8.23388 47.8233 8.73144 46.9615Z" fill="url(#paint0_linear_165_5011)"/>
</g>
<defs>
<linearGradient id="paint0_linear_165_5011" x1="7.14509" y1="48.2266" x2="46.2477" y2="6.90013" gradientUnits="userSpaceOnUse">
<stop stop-color="#6D00AF"/>
<stop offset="1" stop-color="#EF0069"/>
</linearGradient>
<clipPath id="clip0_165_5011">
<rect width="267" height="50" fill="white"/>
</clipPath>
</defs>
</svg>
