<svg width="49" height="49" viewBox="0 0 49 49" fill="none" xmlns="http://www.w3.org/2000/svg">
<circle cx="24.4565" cy="24.4565" r="24.4565" fill="url(#paint0_linear_303_364)"/>
<path fill-rule="evenodd" clip-rule="evenodd" d="M28.4138 29.3335C27.8161 28.2305 26.4326 26.0254 23.5201 24.3438L23.5235 24.338C20.7458 22.7343 18.0037 22.5575 16.7555 22.5948C17.0115 20.5001 17.688 18.4217 18.8113 16.4761C21.7955 11.3074 27.1842 8.4022 32.7499 8.35732C35.4905 13.2057 35.6689 19.3251 32.6848 24.4937C31.5615 26.4393 30.0997 28.0644 28.4138 29.3335ZM30.9521 14.5703C31.3785 13.832 31.1292 12.8833 30.385 12.4536C29.6466 12.0273 28.6945 12.2824 28.2682 13.0208C27.8419 13.7591 28.097 14.7112 28.8354 15.1375C29.5738 15.5638 30.5258 15.3087 30.9521 14.5703ZM28.7316 21.1096C29.53 19.7266 29.0604 17.9553 27.6715 17.1534C26.2885 16.3549 24.5137 16.8305 23.7153 18.2135C22.9168 19.5965 23.3923 21.3712 24.7753 22.1697C26.1583 22.9682 27.9331 22.4926 28.7316 21.1096ZM32.521 27.376C31.7535 31.2225 30.1362 34.0237 30.1362 34.0237L30.1329 34.0295C29.9743 32.8832 29.5997 31.7996 29.1683 30.8551C30.4074 29.8593 31.5381 28.6994 32.521 27.376ZM15.0545 22.6987C15.3008 21.1219 15.7433 19.5569 16.3922 18.0406C13.4321 20.6368 11.8081 23.4497 11.8081 23.4497C12.8801 23.0139 14.015 22.794 15.0487 22.6953L15.0545 22.6987ZM7.73281 28.2619C11.5358 24.3005 17.6665 23.2769 22.6301 26.1426L22.6418 26.1494C27.6053 29.0151 29.7809 34.8421 28.2551 40.1104L24.0065 37.6575C24.3821 34.7333 23.0282 31.7326 20.3149 30.1661C17.6017 28.5996 14.3202 28.9241 11.9814 30.7148L7.73281 28.2619ZM15.64 38.2497C16.763 38.8981 18.1991 38.5133 18.8475 37.3903C19.4959 36.2672 19.1111 34.8312 17.988 34.1828C16.865 33.5344 15.4289 33.9192 14.7805 35.0422C14.1321 36.1653 14.5169 37.6013 15.64 38.2497ZM13.5099 39.5438C13.8415 38.9695 14.5717 38.7738 15.146 39.1054C15.7203 39.437 15.916 40.1672 15.5844 40.7415C15.2528 41.3158 14.5226 41.5115 13.9483 41.1799C13.374 40.8483 13.1783 40.1181 13.5099 39.5438Z" fill="white"/>
<defs>
<linearGradient id="paint0_linear_303_364" x1="14.4065" y1="48.922" x2="53.6898" y2="6.46064" gradientUnits="userSpaceOnUse">
<stop stop-color="#6D00AF"/>
<stop offset="1" stop-color="#EF0069"/>
</linearGradient>
</defs>
</svg>
