<svg width="35" height="35" viewBox="0 0 35 35" fill="none" xmlns="http://www.w3.org/2000/svg">
<path d="M17.5 34.563C26.923 34.563 34.563 26.923 34.563 17.5C34.563 8.07701 26.922 0.437012 17.5 0.437012C8.07701 0.438012 0.437012 8.07801 0.437012 17.5C0.437012 26.923 8.07701 34.563 17.5 34.563Z" fill="#E30026"/>
<path fill-rule="evenodd" clip-rule="evenodd" d="M27.17 18.376C25.365 19.36 19.764 19.594 19.764 19.594H15.235C15.235 19.594 9.63399 19.36 7.82899 18.376C6.02499 17.391 6.64899 16.834 8.78099 16.21C10.913 15.587 15.235 15.357 15.235 15.357V18.687H19.762V15.357H19.764C19.764 15.357 24.086 15.587 26.218 16.21C28.351 16.834 28.974 17.391 27.17 18.376ZM29.335 17.358C28.515 15.161 19.764 15.029 19.764 15.029H19.762V12.143H26.578V7.61499H8.41999V12.142H15.235V15.03C15.235 15.03 6.48499 15.16 5.66499 17.359C4.84499 19.557 12.307 20.245 15.235 20.245V29.665H19.762V20.245H19.764C22.692 20.245 30.155 19.557 29.335 17.358Z" fill="white"/>
</svg>
