<svg width="35" height="35" viewBox="0 0 35 35" fill="none" xmlns="http://www.w3.org/2000/svg">
<path d="M17.5 35C27.165 35 35 27.165 35 17.5C35 7.83502 27.165 0 17.5 0C7.83502 0 0 7.83502 0 17.5C0 27.165 7.83502 35 17.5 35Z" fill="white"/>
<path d="M17.5 34.5C26.8888 34.5 34.5 26.8888 34.5 17.5C34.5 8.11116 26.8888 0.5 17.5 0.5C8.11116 0.5 0.5 8.11116 0.5 17.5C0.5 26.8888 8.11116 34.5 17.5 34.5Z" stroke="#555555"/>
<path fill-rule="evenodd" clip-rule="evenodd" d="M17.5 4V22.458L9 17.598L17.5 4Z" fill="#919191"/>
<path fill-rule="evenodd" clip-rule="evenodd" d="M17.5 4V22.458L26 17.598L17.5 4Z" fill="#414141"/>
<path opacity="0.7" fill-rule="evenodd" clip-rule="evenodd" d="M17.5 13.8779V22.4609L9 17.5969L17.5 13.8779ZM17.5 13.8779V22.4599L26 17.5999L17.5 13.8779Z" fill="black"/>
<path fill-rule="evenodd" clip-rule="evenodd" d="M9 19.1399L17.5 30.7529V24.0059L9 19.1399Z" fill="#919191"/>
<path fill-rule="evenodd" clip-rule="evenodd" d="M26 19.1399L17.5 30.7529V24.0059L26 19.1399Z" fill="#414141"/>
</svg>
