<svg width="35" height="35" viewBox="0 0 35 35" fill="none" xmlns="http://www.w3.org/2000/svg">
<path d="M17.5 34.563C26.9236 34.563 34.563 26.9236 34.563 17.5C34.563 8.07638 26.9236 0.437012 17.5 0.437012C8.07637 0.437012 0.437 8.07638 0.437 17.5C0.437 26.9236 8.07637 34.563 17.5 34.563Z" fill="#00A27A"/>
<path fill-rule="evenodd" clip-rule="evenodd" d="M27.17 18.375C25.366 19.359 19.764 19.593 19.764 19.593H15.236C15.236 19.593 9.634 19.359 7.83 18.375C6.025 17.391 6.649 16.833 8.781 16.21C10.914 15.586 15.236 15.357 15.236 15.357V18.687H19.763V15.357H19.764C19.764 15.357 24.086 15.587 26.219 16.21C28.351 16.833 28.975 17.39 27.17 18.375ZM29.335 17.358C28.515 15.16 19.765 15.028 19.765 15.028H19.763V12.142H26.578V7.61401H8.42V12.142H15.236V15.029C15.236 15.029 6.485 15.159 5.665 17.358C4.845 19.556 12.308 20.245 15.235 20.245V29.665H19.763V20.243L19.764 20.245C22.692 20.245 30.155 19.555 29.335 17.358Z" fill="white"/>
</svg>
