<svg width="35" height="35" viewBox="0 0 35 35" fill="none" xmlns="http://www.w3.org/2000/svg">
<g clip-path="url(#clip0_124_1597)">
<path d="M22.0704 0.60852C31.4 3.13248 36.917 12.7417 34.3931 22.0713C31.8691 31.4009 22.2599 36.918 12.9303 34.394C3.6007 31.87 -1.91636 22.2608 0.607599 12.9312C3.13156 3.60163 12.7408 -1.91544 22.0704 0.60852Z" fill="#FFC536"/>
<g opacity="0.8">
<path opacity="0.15" d="M34.1688 12.1687C32.3125 6.3874 27.5 1.73115 21.1313 0.381151C11.6813 -1.6251 2.3875 4.4124 0.381249 13.8624C-0.281251 16.9874 -0.0687506 20.0937 0.862499 22.9312L34.1688 12.1687Z" fill="black"/>
</g>
<path d="M17.875 31.2751C18.725 31.2751 19.575 31.2751 20.425 31.2688C20.4187 31.1813 20.4125 31.0938 20.4125 31.0063C20.4125 29.8313 20.4062 28.6626 20.4062 27.4876C20.4062 27.0813 20.4062 27.0876 20.8188 27.0438C21.95 26.9188 23.0625 26.7126 24.1063 26.2251C25.0938 25.7626 25.8625 25.0938 26.2625 24.0563C26.55 23.3126 26.6187 22.5313 26.5625 21.7438C26.4625 20.4001 25.8375 19.3751 24.6688 18.6876C24.5875 18.6438 24.5125 18.5938 24.4 18.5376C24.4688 18.5063 24.5 18.4876 24.5375 18.4751C24.975 18.3126 25.4312 18.1813 25.8438 17.9751C26.8625 17.4626 27.5875 16.6813 27.875 15.5438C28.1625 14.4063 28.0938 13.2751 27.8125 12.1501C27.5625 11.1751 27.1 10.3251 26.325 9.6626C25.45 8.9126 24.3938 8.51885 23.2875 8.30635C22.4062 8.1376 21.5063 8.06885 20.6063 7.9751C20.4125 7.95635 20.3562 7.89385 20.3625 7.70635C20.375 7.36885 20.3625 7.03135 20.3625 6.69385C20.3625 5.70635 20.3687 4.7126 20.3687 3.7251C19.5187 3.7251 18.6688 3.7251 17.8188 3.73135C17.8188 5.10635 17.825 6.48135 17.825 7.9001C17.175 7.9001 16.5437 7.90635 15.9187 7.9001C15.7687 7.9001 15.8 7.78135 15.8 7.6876C15.8 6.36885 15.7937 5.0501 15.7937 3.73135C14.9437 3.73135 14.0937 3.73135 13.2437 3.7376C13.2437 5.14385 13.25 6.54385 13.25 7.98135C11.5312 7.98135 9.85 7.9876 8.175 7.9876C8.1625 8.03135 8.15625 8.0501 8.15625 8.0626C8.3125 9.0001 8.48125 9.9376 8.63125 10.8813C8.65625 11.0251 8.7375 11.0126 8.8375 11.0126C9.35625 11.0126 9.88125 11.0063 10.4 11.0126C11.1187 11.0126 11.4562 11.3626 11.4625 12.0813L11.4812 23.0376C11.4812 23.8313 11 24.3501 10.2063 24.3938C9.7875 24.4188 9.36875 24.4188 8.95625 24.4251C8.7 24.4313 8.45 24.4251 8.19375 24.4251C8.19375 25.3376 8.2 26.2188 8.2 27.1313C9.90625 27.1313 11.5938 27.1251 13.2875 27.1251C13.2875 28.5313 13.2937 29.9126 13.2937 31.2876C14.1437 31.2876 14.9938 31.2876 15.8438 31.2813C15.8375 29.9813 15.8375 28.6876 15.8313 27.3876C15.8313 27.2313 15.875 27.1813 16.0312 27.1876C16.4688 27.2001 16.9125 27.2063 17.35 27.2063H17.8625C17.8687 28.5938 17.875 29.9313 17.875 31.2751ZM15.8625 10.9876C16.6625 10.9876 17.425 10.9688 18.1875 10.9876C19.1875 11.0188 20.175 11.1251 21.125 11.4688C21.7312 11.6876 22.3 11.9813 22.65 12.5563C23.325 13.6688 22.9813 15.1001 21.85 15.7688C21.025 16.2563 20.1125 16.4751 19.1688 16.5188C18.1688 16.5688 17.1625 16.5626 16.1625 16.5751C15.8813 16.5813 15.8813 16.5751 15.8813 16.2813C15.875 14.6063 15.875 12.9251 15.875 11.2501C15.8625 11.1751 15.8625 11.0938 15.8625 10.9876ZM15.8813 21.6813C15.8813 20.8938 15.8812 20.1126 15.875 19.3251C15.875 19.2001 15.8875 19.1251 16.05 19.1188C17.3312 19.0938 18.6125 19.0938 19.8687 19.4313C20.5187 19.6063 21.0938 19.9251 21.4813 20.4626C22.0875 21.3001 21.8812 22.6563 21.0875 23.3188C20.4437 23.8563 19.6562 24.0626 18.85 24.1313C17.9438 24.2063 17.0375 24.1876 16.125 24.2188C15.925 24.2251 15.8813 24.1501 15.8813 23.9626C15.8938 23.2063 15.8813 22.4438 15.8813 21.6813Z" fill="white"/>
</g>
<defs>
<clipPath id="clip0_124_1597">
<rect width="35" height="35" fill="white" transform="matrix(1 0 0 -1 0 35)"/>
</clipPath>
</defs>
</svg>
